<svg width="97" height="92" viewBox="0 0 97 92" fill="none" xmlns="http://www.w3.org/2000/svg">
<path d="M38.6667 0H58C60.5638 0 63.0225 1.01845 64.8354 2.8313C66.6482 4.64415 67.6667 7.10291 67.6667 9.66667V19.3333H87C89.5638 19.3333 92.0225 20.3518 93.8354 22.1646C95.6482 23.9775 96.6667 26.4362 96.6667 29V82.1667C96.6667 84.7304 95.6482 87.1892 93.8354 89.002C92.0225 90.8149 89.5638 91.8333 87 91.8333H9.66667C7.10291 91.8333 4.64415 90.8149 2.8313 89.002C1.01845 87.1892 0 84.7304 0 82.1667V29C0 26.4362 1.01845 23.9775 2.8313 22.1646C4.64415 20.3518 7.10291 19.3333 9.66667 19.3333H29V9.66667C29 7.10291 30.0185 4.64415 31.8313 2.8313C33.6442 1.01845 36.1029 0 38.6667 0ZM58 19.3333V9.66667H38.6667V19.3333H58ZM41.0833 74.9167L72.935 43.065L66.12 36.25L41.0833 61.2383L30.9817 51.185L24.1667 58L41.0833 74.9167Z" fill="#528786"/>
</svg>
