<svg width="116" height="116" viewBox="0 0 116 116" fill="none" xmlns="http://www.w3.org/2000/svg">
<g clip-path="url(#clip0_0_3543)">
<path d="M32.3838 58C32.4019 63.3567 33.0727 68.6912 34.3816 73.8855H55.2616V43.3389H34.0916C32.9777 48.147 32.4049 53.0646 32.3838 58Z" fill="#528786"/>
<path d="M60.7393 73.9178H81.6193C82.985 68.7197 83.71 63.3741 83.7781 58C83.7676 53.0658 83.2056 48.1482 82.1026 43.3389H60.7393V73.9178Z" fill="#528786"/>
<path d="M106.72 41.2763C104.772 42.1702 102.713 42.7987 100.598 43.1452H99.8891C97.6789 43.4871 95.4293 43.4871 93.2191 43.1452H87.4191C88.5133 48.0222 89.0857 53.0016 89.1268 57.9997C89.1103 63.3469 88.4942 68.6753 87.2902 73.8852H100.179C99.4277 75.8906 98.534 77.8396 97.5046 79.7174H85.7113C83.5058 86.622 80.245 93.1437 76.0446 99.0508C72.945 100.402 69.702 101.396 66.3779 102.015C72.3309 95.5467 76.9126 87.9398 79.8468 79.653H60.7713V102.692H55.3257V79.6208H36.1535C39.0838 87.919 43.6657 95.5372 49.6224 102.015C46.3668 101.403 43.1895 100.43 40.1491 99.1152C35.9338 93.1586 32.6725 86.5816 30.4824 79.6208H18.6246C17.5952 77.7429 16.7015 75.7939 15.9502 73.7886H28.8391C27.6313 68.6114 27.0045 63.3157 26.9702 57.9997C26.9719 53.072 27.4903 48.1581 28.5168 43.3386H15.3379C16.0156 41.3391 16.8339 39.3902 17.7868 37.5063H30.0635C32.367 29.8344 35.9394 22.6024 40.6324 16.1108C43.6083 14.8777 46.709 13.9702 49.8802 13.4041C43.4701 20.2837 38.6324 28.4747 35.7024 37.4097H55.3257V12.8886H60.7713V37.5063H80.3946V37.0874C76.0659 33.0795 73.3598 27.6214 72.7902 21.7497C70.8636 18.844 68.7087 16.0964 66.3457 13.533C68.6004 13.9674 70.8192 14.5706 72.9835 15.3374C73.3308 13.2679 73.9483 11.2529 74.8202 9.34411C63.756 5.51839 51.7215 5.55729 40.6823 9.45444C29.6431 13.3516 20.2515 20.8767 14.0413 30.8007C7.83117 40.7247 5.16949 52.4612 6.49099 64.0933C7.8125 75.7254 13.0391 86.5658 21.3171 94.8438C29.5952 103.122 40.4355 108.348 52.0676 109.67C63.6997 110.991 75.4362 108.33 85.3602 102.12C95.2843 95.9095 102.809 86.5179 106.707 75.4786C110.604 64.4394 110.643 52.405 106.817 41.3408L106.72 41.2763Z" fill="#528786"/>
<path d="M96.6668 35.4449C105.565 35.4449 112.778 28.2317 112.778 19.3338C112.778 10.4358 105.565 3.22266 96.6668 3.22266C87.7689 3.22266 80.5557 10.4358 80.5557 19.3338C80.5557 28.2317 87.7689 35.4449 96.6668 35.4449Z" fill="#528786"/>
</g>
<defs>
<clipPath id="clip0_0_3543">
<rect width="116" height="116" fill="white"/>
</clipPath>
</defs>
</svg>
