<svg width="112" height="112" viewBox="0 0 112 112" fill="none" xmlns="http://www.w3.org/2000/svg">
<path d="M101.667 35.5779C104.363 35.5779 106.949 36.649 108.856 38.5556C110.762 40.4622 111.833 43.0482 111.833 45.7445V66.0779C111.833 68.7742 110.762 71.3602 108.856 73.2668C106.949 75.1734 104.363 76.2445 101.667 76.2445H96.2682C95.0289 86.0721 90.2458 95.1097 82.8164 101.661C75.387 108.213 65.8221 111.828 55.9167 111.828V101.661C64.0058 101.661 71.7636 98.4478 77.4834 92.728C83.2033 87.0081 86.4167 79.2503 86.4167 71.1612V40.6612C86.4167 32.5721 83.2033 24.8143 77.4834 19.0944C71.7636 13.3746 64.0058 10.1612 55.9167 10.1612C47.8276 10.1612 40.0698 13.3746 34.3499 19.0944C28.63 24.8143 25.4167 32.5721 25.4167 40.6612V76.2445H10.1667C7.4703 76.2445 4.88437 75.1734 2.97775 73.2668C1.07113 71.3602 0 68.7742 0 66.0779V45.7445C0 43.0482 1.07113 40.4622 2.97775 38.5556C4.88437 36.649 7.4703 35.5779 10.1667 35.5779H15.5652C16.8057 25.7512 21.5893 16.715 29.0186 10.1646C36.4478 3.61426 46.0121 0 55.9167 0C65.8213 0 75.3855 3.61426 82.8147 10.1646C90.244 16.715 95.0277 25.7512 96.2682 35.5779H101.667ZM34.3633 75.1516L39.7517 66.5303C44.5965 69.5652 50.1998 71.1704 55.9167 71.1612C61.6335 71.1704 67.2369 69.5652 72.0817 66.5303L77.47 75.1516C71.0104 79.1987 63.5393 81.3396 55.9167 81.3279C48.294 81.3396 40.8229 79.1987 34.3633 75.1516Z" fill="#528786"/>
</svg>
