<svg width="97" height="107" viewBox="0 0 97 107" fill="none" xmlns="http://www.w3.org/2000/svg">
<path d="M87 48.865V19.3333C87 16.7696 85.9815 14.3108 84.1687 12.498C82.3558 10.6851 79.8971 9.66667 77.3333 9.66667H57.13C55.1 4.06 49.7833 0 43.5 0C37.2167 0 31.9 4.06 29.87 9.66667H9.66667C4.35 9.66667 0 14.0167 0 19.3333V87C0 89.5638 1.01845 92.0225 2.8313 93.8354C4.64415 95.6482 7.10291 96.6667 9.66667 96.6667H39.1983C45.2883 102.66 53.6017 106.333 62.8333 106.333C81.5383 106.333 96.6667 91.205 96.6667 72.5C96.6667 63.2683 92.9933 54.955 87 48.865ZM43.5 9.66667C46.1583 9.66667 48.3333 11.8417 48.3333 14.5C48.3333 17.1583 46.1583 19.3333 43.5 19.3333C40.8417 19.3333 38.6667 17.1583 38.6667 14.5C38.6667 11.8417 40.8417 9.66667 43.5 9.66667ZM14.5 29H72.5V38.6667H14.5V29ZM29.3867 77.3333H14.5V67.6667H29.3867C29.145 69.2617 29 70.8567 29 72.5C29 74.1433 29.145 75.7383 29.3867 77.3333ZM14.5 58V48.3333H39.1983C36.25 51.0883 34.0267 54.375 32.2867 58H14.5ZM62.8333 96.6667C49.4933 96.6667 38.6667 85.84 38.6667 72.5C38.6667 59.16 49.4933 48.3333 62.8333 48.3333C76.1733 48.3333 87 59.16 87 72.5C87 85.84 76.1733 96.6667 62.8333 96.6667ZM65.25 73.7083L79.0733 81.8767L75.4483 87.7733L58 77.3333V53.1667H65.25V73.7083Z" fill="#528786"/>
</svg>
