<svg width="345" height="241" viewBox="0 0 345 241" fill="none" xmlns="http://www.w3.org/2000/svg">
<g clip-path="url(#clip0_0_3917)">
<path d="M196.445 117.842C204.208 117.842 210.501 112.181 210.501 105.198C210.501 98.2154 204.208 92.5547 196.445 92.5547C188.681 92.5547 182.388 98.2154 182.388 105.198C182.388 112.181 188.681 117.842 196.445 117.842Z" fill="#ECF2F2"/>
<path d="M230.894 121.445L216.205 108.232C217.331 106.657 218.094 104.894 218.449 103.049C218.804 101.204 218.743 99.3129 218.271 97.4889C217.798 95.6649 216.924 93.9448 215.699 92.4305C214.474 90.9161 212.923 89.6383 211.139 88.6728C207.78 86.8677 203.789 86.2632 199.958 86.9791C196.127 87.6949 192.734 89.6789 190.452 92.5381C188.352 95.1866 187.343 98.4104 187.599 101.655C187.856 104.9 189.361 107.963 191.856 110.318C194.351 112.673 197.68 114.173 201.271 114.559C204.862 114.946 208.49 114.195 211.532 112.435L226.222 125.648C226.841 126.205 227.682 126.518 228.558 126.517C229.434 126.517 230.274 126.204 230.893 125.647C231.513 125.09 231.861 124.334 231.861 123.546C231.861 122.758 231.513 122.002 230.894 121.445ZM210.984 107.739C209.164 109.376 206.769 110.395 204.207 110.622C201.646 110.849 199.076 110.27 196.935 108.984C194.795 107.697 193.217 105.783 192.47 103.568C191.723 101.352 191.853 98.9721 192.838 96.833C193.823 94.694 195.602 92.9283 197.872 91.8368C200.142 90.7454 202.763 90.3957 205.287 90.8474C207.812 91.2991 210.084 92.5242 211.717 94.314C213.35 96.1037 214.242 98.3474 214.242 100.663C214.244 101.977 213.957 103.279 213.398 104.493C212.839 105.708 212.019 106.811 210.984 107.739Z" fill="#37454D"/>
<path d="M337.375 140.935C374.941 178.303 266.043 232.156 178.052 232.156C90.0597 232.156 29.183 190.43 18.7281 140.935C-6.62139 20.928 234.712 -55.3479 178.052 49.7144C95.462 202.855 307.791 111.507 337.375 140.935Z" fill="#ECF2F2"/>
<path d="M320.52 149.779C358.086 187.147 249.188 241 161.196 241C73.2044 241 12.3278 199.273 1.87292 149.779C-23.4766 29.7718 217.857 -46.5042 161.196 58.5582C78.6068 211.699 290.936 120.351 320.52 149.779Z" fill="#528786"/>
<path d="M52.5298 62.1686C26.1699 61.1246 5.73167 56.0101 6.00017 50.5249C6.16115 47.2363 13.6213 44.5918 26.4675 43.2699C26.5135 43.2649 26.5601 43.2681 26.6047 43.2793C26.6493 43.2906 26.691 43.3097 26.7273 43.3355C26.7637 43.3613 26.794 43.3933 26.8165 43.4297C26.8391 43.4661 26.8534 43.5062 26.8587 43.5475C26.8639 43.5889 26.86 43.6308 26.8472 43.6709C26.8344 43.7109 26.8129 43.7482 26.784 43.7808C26.755 43.8133 26.7192 43.8404 26.6786 43.8604C26.638 43.8804 26.5934 43.893 26.5473 43.8975C14.4461 45.1429 6.84178 47.693 6.70178 50.5526C6.45897 55.513 27.4597 60.5434 52.5607 61.5375C77.6617 62.5316 99.0727 59.1809 99.3155 54.2206C99.4561 51.3489 92.083 48.1987 80.0733 45.9994C80.028 45.9913 79.985 45.9751 79.9466 45.952C79.9082 45.9288 79.8754 45.899 79.8498 45.8644C79.8242 45.8298 79.8065 45.791 79.7977 45.7502C79.7889 45.7094 79.7891 45.6674 79.7983 45.6267C79.8075 45.586 79.8256 45.5473 79.8514 45.5129C79.8773 45.4784 79.9105 45.4489 79.949 45.426C79.9876 45.4032 80.0308 45.3873 80.0762 45.3795C80.1216 45.3717 80.1682 45.372 80.2135 45.3804C92.9606 47.7147 100.179 50.947 100.017 54.2484C99.7486 59.7336 78.8897 63.2125 52.5298 62.1686Z" fill="#FF6F6B"/>
<path d="M29.1184 63.0859C31.3236 66.8539 34.5902 70.035 38.5914 72.3108C42.5925 74.5866 47.188 75.8774 51.918 76.0539C56.6479 76.2305 61.3465 75.2867 65.5436 73.317C69.7407 71.3473 73.2891 68.4207 75.8339 64.83C60.2383 65.0191 44.6429 64.4368 29.1184 63.0859Z" fill="#FF6F6B"/>
<path d="M78.7497 58.1873C80.0769 54.6067 80.4593 50.7975 79.8667 47.061C79.2741 43.3245 77.7228 39.7634 75.3355 36.6594C72.9483 33.5555 69.7906 30.9939 66.1124 29.1774C62.4342 27.361 58.3365 26.3395 54.1435 26.1939C49.9506 26.0483 45.7775 26.7824 41.9545 28.3383C38.1315 29.8942 34.7636 32.2291 32.1174 35.1582C29.4711 38.0873 27.6191 41.5303 26.7079 45.2145C25.7967 48.8987 25.8514 52.7232 26.8676 56.3851C44.0022 59.0015 61.4418 59.6073 78.7497 58.1873Z" fill="#FF6F6B"/>
<path d="M59.2858 41.8826C61.0312 41.8826 62.4462 40.6099 62.4462 39.0399C62.4462 37.47 61.0312 36.1973 59.2858 36.1973C57.5404 36.1973 56.1255 37.47 56.1255 39.0399C56.1255 40.6099 57.5404 41.8826 59.2858 41.8826Z" fill="white"/>
<path d="M43.0207 52.9346C45.9297 52.9346 48.2879 50.8134 48.2879 48.1968C48.2879 45.5802 45.9297 43.459 43.0207 43.459C40.1116 43.459 37.7534 45.5802 37.7534 48.1968C37.7534 50.8134 40.1116 52.9346 43.0207 52.9346Z" fill="white"/>
<path d="M122.518 48.2935C124.457 48.2935 126.029 46.8794 126.029 45.135C126.029 43.3906 124.457 41.9766 122.518 41.9766C120.578 41.9766 119.006 43.3906 119.006 45.135C119.006 46.8794 120.578 48.2935 122.518 48.2935Z" fill="#FF6F6B"/>
<path d="M43.1579 144.945C44.3216 144.945 45.2649 144.096 45.2649 143.049C45.2649 142.003 44.3216 141.154 43.1579 141.154C41.9943 141.154 41.051 142.003 41.051 143.049C41.051 144.096 41.9943 144.945 43.1579 144.945Z" fill="#ECF2F2"/>
<path d="M190.641 210.009C191.804 210.009 192.748 209.161 192.748 208.114C192.748 207.067 191.804 206.219 190.641 206.219C189.477 206.219 188.534 207.067 188.534 208.114C188.534 209.161 189.477 210.009 190.641 210.009Z" fill="#ECF2F2"/>
<path d="M53.3413 108.305C53.9231 108.305 54.3948 107.881 54.3948 107.358C54.3948 106.834 53.9231 106.41 53.3413 106.41C52.7595 106.41 52.2878 106.834 52.2878 107.358C52.2878 107.881 52.7595 108.305 53.3413 108.305Z" fill="#ECF2F2"/>
<path d="M140.426 179.055C141.008 179.055 141.48 178.631 141.48 178.108C141.48 177.584 141.008 177.16 140.426 177.16C139.844 177.16 139.373 177.584 139.373 178.108C139.373 178.631 139.844 179.055 140.426 179.055Z" fill="#ECF2F2"/>
<path d="M298.795 169.897C299.377 169.897 299.848 169.473 299.848 168.95C299.848 168.426 299.377 168.002 298.795 168.002C298.213 168.002 297.741 168.426 297.741 168.95C297.741 169.473 298.213 169.897 298.795 169.897Z" fill="#ECF2F2"/>
<path d="M249.283 198.006C249.865 198.006 250.336 197.582 250.336 197.059C250.336 196.536 249.865 196.111 249.283 196.111C248.701 196.111 248.229 196.536 248.229 197.059C248.229 197.582 248.701 198.006 249.283 198.006Z" fill="#ECF2F2"/>
<path d="M197.664 163.895C198.246 163.895 198.717 163.471 198.717 162.948C198.717 162.424 198.246 162 197.664 162C197.082 162 196.61 162.424 196.61 162.948C196.61 163.471 197.082 163.895 197.664 163.895Z" fill="#ECF2F2"/>
<path d="M130.945 70.403C131.527 70.403 131.999 69.9787 131.999 69.4554C131.999 68.9321 131.527 68.5078 130.945 68.5078C130.363 68.5078 129.892 68.9321 129.892 69.4554C129.892 69.9787 130.363 70.403 130.945 70.403Z" fill="#ECF2F2"/>
<path d="M139.373 23.6569C139.955 23.6569 140.427 23.2326 140.427 22.7093C140.427 22.186 139.955 21.7617 139.373 21.7617C138.791 21.7617 138.32 22.186 138.32 22.7093C138.32 23.2326 138.791 23.6569 139.373 23.6569Z" fill="#ECF2F2"/>
<path d="M134.457 220.432C135.039 220.432 135.51 220.008 135.51 219.485C135.51 218.961 135.039 218.537 134.457 218.537C133.875 218.537 133.403 218.961 133.403 219.485C133.403 220.008 133.875 220.432 134.457 220.432Z" fill="#ECF2F2"/>
<path d="M82.4868 200.534C83.0686 200.534 83.5403 200.11 83.5403 199.586C83.5403 199.063 83.0686 198.639 82.4868 198.639C81.905 198.639 81.4333 199.063 81.4333 199.586C81.4333 200.11 81.905 200.534 82.4868 200.534Z" fill="#ECF2F2"/>
<path d="M247.176 166.422C247.758 166.422 248.229 165.998 248.229 165.475C248.229 164.952 247.758 164.527 247.176 164.527C246.594 164.527 246.122 164.952 246.122 165.475C246.122 165.998 246.594 166.422 247.176 166.422Z" fill="#ECF2F2"/>
<path d="M52.1013 73.8455C53.8467 73.8455 55.2616 72.5728 55.2616 71.0028C55.2616 69.4329 53.8467 68.1602 52.1013 68.1602C50.3559 68.1602 48.9409 69.4329 48.9409 71.0028C48.9409 72.5728 50.3559 73.8455 52.1013 73.8455Z" fill="white"/>
<path d="M123.571 114.623C123.571 123.113 108.978 142.897 104.713 148.497C104.584 148.666 104.412 148.805 104.21 148.9C104.008 148.996 103.784 149.046 103.556 149.046C103.328 149.046 103.103 148.996 102.902 148.9C102.7 148.805 102.527 148.666 102.399 148.497C98.1338 142.897 83.5403 123.113 83.5403 114.623C83.5403 112.258 84.058 109.917 85.0639 107.733C86.0697 105.549 87.5441 103.564 89.4027 101.892C91.2613 100.22 93.4678 98.8943 95.8962 97.9896C98.3246 97.0848 100.927 96.6191 103.556 96.6191C106.184 96.6191 108.787 97.0848 111.215 97.9896C113.644 98.8943 115.85 100.22 117.709 101.892C119.568 103.564 121.042 105.549 122.048 107.733C123.054 109.917 123.571 112.258 123.571 114.623Z" fill="white"/>
<path d="M103.556 122.519C109.18 122.519 113.739 118.418 113.739 113.359C113.739 108.3 109.18 104.199 103.556 104.199C97.9316 104.199 93.3723 108.3 93.3723 113.359C93.3723 118.418 97.9316 122.519 103.556 122.519Z" fill="#FF6F6B"/>
<path d="M103.38 158.842C109.877 158.842 115.144 157.923 115.144 156.789C115.144 155.656 109.877 154.736 103.38 154.736C96.8834 154.736 91.6167 155.656 91.6167 156.789C91.6167 157.923 96.8834 158.842 103.38 158.842Z" fill="white"/>
<path d="M286.838 100.415C286.749 100.571 286.673 100.732 286.613 100.898L269.834 105.092L266.81 102.43L261.748 106.01L266.592 111.189C266.983 111.608 267.515 111.901 268.107 112.024C268.699 112.148 269.32 112.095 269.876 111.875L288.001 104.678C288.616 105.062 289.346 105.268 290.095 105.27C290.843 105.271 291.574 105.068 292.191 104.686C292.808 104.305 293.281 103.763 293.547 103.134C293.814 102.505 293.861 101.818 293.683 101.164C293.504 100.51 293.109 99.9204 292.549 99.4737C291.989 99.0269 291.291 98.7441 290.547 98.6629C289.804 98.5817 289.051 98.7058 288.389 99.0189C287.726 99.332 287.185 99.8191 286.838 100.415H286.838Z" fill="#FFB8B8"/>
<path d="M269.242 105.337L262.944 109.746C262.765 109.872 262.558 109.961 262.337 110.008C262.116 110.055 261.886 110.058 261.664 110.018C261.441 109.978 261.231 109.895 261.047 109.776C260.863 109.656 260.71 109.502 260.598 109.324L256.684 103.093C255.975 102.265 255.661 101.217 255.809 100.181C255.958 99.1443 256.558 98.2031 257.477 97.5635C258.396 96.924 259.559 96.6384 260.712 96.7694C261.865 96.9004 262.913 97.4372 263.626 98.2622L269.363 103.188C269.527 103.329 269.656 103.5 269.74 103.69C269.824 103.879 269.861 104.083 269.85 104.287C269.838 104.491 269.778 104.691 269.673 104.872C269.569 105.053 269.422 105.212 269.242 105.337V105.337Z" fill="#FF6F6B"/>
<path d="M288.447 98.3298L294.833 100.914C295.101 101.023 295.31 101.222 295.414 101.469C295.518 101.715 295.508 101.989 295.388 102.23L294.632 103.741C294.721 103.778 294.79 103.844 294.825 103.926C294.86 104.008 294.857 104.099 294.817 104.18L294.514 104.784C294.474 104.864 294.4 104.927 294.309 104.958C294.218 104.989 294.116 104.987 294.027 104.951L293.725 105.555C293.813 105.592 293.883 105.658 293.918 105.74C293.952 105.822 293.949 105.914 293.909 105.994L293.607 106.599C293.567 106.679 293.493 106.741 293.401 106.772C293.31 106.803 293.209 106.801 293.12 106.765L289.036 114.928C288.916 115.169 288.694 115.357 288.42 115.45C288.146 115.544 287.842 115.536 287.574 115.427L281.187 112.843C280.92 112.735 280.711 112.535 280.607 112.289C280.503 112.042 280.512 111.768 280.633 111.528L286.985 98.8287C287.105 98.5882 287.327 98.4004 287.601 98.3069C287.875 98.2133 288.179 98.2215 288.447 98.3298Z" fill="#37454D"/>
<path d="M282.347 112.038L287.471 114.114C287.727 114.217 288.019 114.225 288.282 114.135C288.545 114.046 288.758 113.866 288.875 113.636L291.241 108.902L292.063 107.26L294.205 102.977C294.319 102.746 294.328 102.485 294.228 102.249C294.129 102.012 293.93 101.821 293.674 101.717L292.063 101.064L288.547 99.6416C288.29 99.5385 287.999 99.5312 287.736 99.6213C287.473 99.7114 287.261 99.8916 287.146 100.122L285.075 104.263L282.716 108.978L281.816 110.778C281.702 111.009 281.693 111.271 281.792 111.507C281.892 111.743 282.091 111.934 282.347 112.038Z" fill="#F2F2F2"/>
<path d="M271.641 170.7L275.946 170.7L277.995 155.764L271.641 155.764L271.641 170.7Z" fill="#FFB8B8"/>
<path d="M270.543 169.436L279.021 169.436H279.022C279.731 169.436 280.434 169.561 281.089 169.805C281.745 170.05 282.34 170.408 282.842 170.859C283.344 171.31 283.742 171.846 284.013 172.436C284.285 173.025 284.425 173.657 284.425 174.295V174.453L270.543 174.454L270.543 169.436Z" fill="#37454D"/>
<path d="M282.878 169.753L287.183 169.752L289.231 154.816L282.877 154.817L282.878 169.753Z" fill="#FFB8B8"/>
<path d="M281.78 168.489L290.258 168.488H290.258C290.968 168.488 291.671 168.614 292.326 168.858C292.982 169.102 293.577 169.46 294.079 169.912C294.581 170.363 294.979 170.899 295.25 171.488C295.522 172.078 295.661 172.71 295.661 173.348V173.506L281.78 173.506L281.78 168.489Z" fill="#37454D"/>
<path d="M252.331 135.651C253.248 138.096 254.988 140.225 257.309 141.742C259.631 143.259 262.419 144.09 265.288 144.119L265.506 144.122C267.729 144.179 270.338 143.535 272.898 142.609C277.954 140.78 282.811 137.852 284.099 137.047L281.915 155.932L281.03 163.588C281.008 163.786 281.032 163.986 281.101 164.175C281.17 164.365 281.282 164.539 281.43 164.687C281.578 164.835 281.759 164.953 281.961 165.034C282.163 165.115 282.382 165.157 282.604 165.158H288.057C288.406 165.158 288.746 165.054 289.023 164.862C289.3 164.67 289.499 164.401 289.588 164.097L298.591 133.254C298.861 132.33 298.883 131.363 298.655 130.43C298.426 129.498 297.954 128.628 297.278 127.893C296.602 127.157 295.74 126.577 294.765 126.2C293.79 125.824 292.729 125.661 291.67 125.727L272.968 126.88L274.274 122.18L257.581 121.182L257.531 121.213C257.131 121.475 256.741 121.75 256.369 122.038C255.438 122.746 254.613 123.559 253.915 124.457C252.664 126.069 251.867 127.929 251.591 129.879C251.315 131.828 251.569 133.809 252.331 135.651Z" fill="#37454D"/>
<path d="M252.331 135.651C253.248 138.096 254.988 140.225 257.309 141.742C259.631 143.259 262.419 144.09 265.288 144.119C268.032 142.87 270.68 141.457 273.214 139.89L272.898 142.609L270.145 166.431C270.122 166.629 270.146 166.829 270.215 167.018C270.284 167.207 270.396 167.381 270.544 167.529C270.693 167.677 270.874 167.796 271.076 167.877C271.278 167.958 271.497 168 271.718 168H277.171C277.521 168.001 277.861 167.897 278.138 167.705C278.415 167.513 278.613 167.243 278.702 166.939L281.915 155.932L287.706 136.096C287.976 135.173 287.997 134.205 287.769 133.273C287.541 132.341 287.069 131.471 286.392 130.735C285.716 130 284.854 129.42 283.879 129.043C282.904 128.666 281.843 128.504 280.784 128.569L262.082 129.722L263.389 125.022L253.914 124.457C252.664 126.069 251.867 127.929 251.591 129.879C251.315 131.828 251.569 133.809 252.331 135.651Z" fill="#37454D"/>
<path d="M256.345 123.127L256.219 123.114L253.307 110.232C253.282 110.12 250.9 99.0085 258.201 93.1996L258.328 92.4046C258.36 92.2011 258.441 92.0064 258.566 91.8339C258.69 91.6615 258.854 91.5152 259.047 91.4054C259.241 91.2956 259.458 91.2248 259.685 91.1978C259.911 91.1709 260.141 91.1884 260.36 91.2493L267.237 93.168C267.626 93.2759 267.954 93.5151 268.152 93.8355C268.349 94.1559 268.401 94.5327 268.297 94.8869L267.628 97.1742C268.555 98.1533 279.467 109.97 275.666 119.074L273.964 125.06L256.345 123.127Z" fill="#FF6F6B"/>
<path d="M284.901 113.073C284.736 113.167 284.58 113.271 284.434 113.386L267.615 109.325L266.515 105.65L260.133 106.418L261.377 113.094C261.477 113.633 261.77 114.128 262.21 114.505C262.65 114.883 263.214 115.121 263.818 115.185L283.493 117.276C283.806 117.888 284.318 118.399 284.962 118.743C285.606 119.086 286.35 119.246 287.097 119.199C287.844 119.153 288.557 118.903 289.142 118.483C289.727 118.063 290.156 117.492 290.372 116.848C290.588 116.203 290.581 115.515 290.351 114.874C290.121 114.233 289.68 113.67 289.086 113.261C288.492 112.851 287.773 112.614 287.026 112.58C286.278 112.547 285.537 112.719 284.901 113.073H284.901Z" fill="#FFB8B8"/>
<path d="M266.967 109.267L259.052 110.184C258.826 110.21 258.598 110.192 258.381 110.131C258.164 110.071 257.964 109.969 257.795 109.832C257.626 109.696 257.491 109.529 257.401 109.341C257.31 109.154 257.266 108.951 257.27 108.747L257.421 101.592C257.279 100.554 257.6 99.5089 258.314 98.6844C259.028 97.8598 260.076 97.3235 261.228 97.193C262.381 97.0625 263.544 97.3486 264.463 97.9884C265.382 98.6282 265.981 99.5696 266.129 100.606L268.286 107.471C268.347 107.667 268.361 107.874 268.326 108.076C268.292 108.277 268.209 108.47 268.084 108.64C267.958 108.811 267.794 108.955 267.601 109.063C267.408 109.171 267.192 109.241 266.967 109.267Z" fill="#FF6F6B"/>
<path d="M264.739 89.5017C269.502 89.5017 273.363 86.0284 273.363 81.744C273.363 77.4596 269.502 73.9863 264.739 73.9863C259.976 73.9863 256.114 77.4596 256.114 81.744C256.114 86.0284 259.976 89.5017 264.739 89.5017Z" fill="#FFB8B8"/>
<path d="M264.285 82.391L263.205 80.6224C261.16 88.1182 264.773 94.3219 264.773 94.3219L250.751 88.4467L250.884 86.3621L249.497 87.7784L247.503 86.7902L247.24 85.4381L245.735 85.7734L251.228 76.8072C256.559 68.275 264.31 71.5325 264.31 71.5325C276.641 71.0053 275.135 81.9479 275.135 81.9479L264.285 82.391Z" fill="#37454D"/>
<path d="M166.108 140.202C168.096 139.056 165.678 132.471 160.706 125.496C155.735 118.52 150.093 113.795 148.104 114.941C146.116 116.088 148.534 122.672 153.505 129.648C158.477 136.624 164.119 141.349 166.108 140.202Z" fill="#37454D"/>
</g>
<defs>
<clipPath id="clip0_0_3917">
<rect width="345" height="241" fill="white"/>
</clipPath>
</defs>
</svg>
