<svg width="180" height="59" viewBox="0 0 180 59" fill="none" xmlns="http://www.w3.org/2000/svg">
<path d="M3 36.0973C3.18338 39.6983 4.53719 42.8083 7.7893 45.1165C9.99169 46.6797 14.4943 47.7506 20.2415 45.1165C25.9887 42.4825 35.1635 28.3482 37.8821 24.6027C45.066 14.7053 53.3463 11.6261 65.0215 12.869C72.5247 13.6678 78.8877 16.071 87.4514 25.2417C99.8237 38.4911 105.491 66.6684 93.5178 55.0144C86.5142 48.1975 101.66 51.9809 107.407 35.6973C110.048 28.2131 113.314 20.5312 118.422 18.4558" stroke="#051721"/>
<path d="M131.469 7.59203C132.608 6.89639 135.255 6.54501 136.056 7.58158C136.88 8.64776 135.538 10.6873 134.398 11.3829L130.512 13.7546L131.189 21.0082C131.226 21.4174 131.014 21.8166 130.631 22.0505L128.758 23.1936C128.405 23.4092 127.915 23.2638 127.778 22.9027L125.487 16.8219L122.057 18.9149L121.936 21.4995C121.927 21.6794 121.824 21.8468 121.656 21.9494L120.257 22.803C119.999 22.9606 119.645 22.9018 119.448 22.6471C119.439 22.6353 119.416 22.5931 119.398 22.5473L117.926 18.6467L114.358 16.0258C114.316 15.9946 114.28 15.9598 114.25 15.9213C114.074 15.6933 114.139 15.3789 114.397 15.2213L115.796 14.3676C115.964 14.2651 116.177 14.2398 116.369 14.2968L119.127 15.124L122.557 13.031L116.993 8.94758C116.662 8.70359 116.686 8.24578 117.039 8.03017L118.912 6.88705C119.295 6.65314 119.789 6.61976 120.207 6.799L127.583 9.96369L131.469 7.59203Z" fill="#FF6F6B"/>
<path d="M9.168 25.6775C10.624 25.6775 11.888 25.9175 12.96 26.3975C14.048 26.8775 14.88 27.5655 15.456 28.4615C16.032 29.3575 16.32 30.4215 16.32 31.6535C16.32 32.8695 16.032 33.9335 15.456 34.8455C14.88 35.7415 14.048 36.4295 12.96 36.9095C11.888 37.3895 10.624 37.6295 9.168 37.6295H5.376V42.4775H2.256V25.6775H9.168ZM9.024 34.9895C10.384 34.9895 11.416 34.7015 12.12 34.1255C12.824 33.5495 13.176 32.7255 13.176 31.6535C13.176 30.5815 12.824 29.7575 12.12 29.1815C11.416 28.6055 10.384 28.3175 9.024 28.3175H5.376V34.9895H9.024ZM26.6541 29.5175C28.2701 29.5175 29.5661 29.9895 30.5421 30.9335C31.5181 31.8775 32.0061 33.2775 32.0061 35.1335V42.4775H29.0061V35.5175C29.0061 34.3975 28.7421 33.5575 28.2141 32.9975C27.6861 32.4215 26.9341 32.1335 25.9581 32.1335C24.8541 32.1335 23.9821 32.4695 23.3421 33.1415C22.7021 33.7975 22.3821 34.7495 22.3821 35.9975V42.4775H19.3821V24.6695H22.3821V31.1495C22.8781 30.6215 23.4861 30.2215 24.2061 29.9495C24.9421 29.6615 25.7581 29.5175 26.6541 29.5175ZM43.0838 29.5175C44.6998 29.5175 45.9958 29.9895 46.9718 30.9335C47.9478 31.8775 48.4358 33.2775 48.4358 35.1335V42.4775H45.4358V35.5175C45.4358 34.3975 45.1718 33.5575 44.6438 32.9975C44.1158 32.4215 43.3638 32.1335 42.3878 32.1335C41.2838 32.1335 40.4118 32.4695 39.7718 33.1415C39.1318 33.7975 38.8118 34.7495 38.8118 35.9975V42.4775H35.8118V29.6615H38.6678V31.3175C39.1638 30.7255 39.7878 30.2775 40.5398 29.9735C41.2918 29.6695 42.1398 29.5175 43.0838 29.5175ZM58.4546 40.1015C59.8466 40.1015 61.0066 39.6375 61.9346 38.7095L63.5186 40.5575C62.9586 41.2455 62.2386 41.7655 61.3586 42.1175C60.4786 42.4695 59.4866 42.6455 58.3826 42.6455C56.9746 42.6455 55.7346 42.3655 54.6626 41.8055C53.5906 41.2455 52.7586 40.4695 52.1666 39.4775C51.5906 38.4695 51.3026 37.3335 51.3026 36.0695C51.3026 34.8215 51.5826 33.7015 52.1426 32.7095C52.7186 31.7015 53.5026 30.9175 54.4946 30.3575C55.5026 29.7975 56.6386 29.5175 57.9026 29.5175C59.1026 29.5175 60.1906 29.7815 61.1666 30.3095C62.1586 30.8215 62.9426 31.5655 63.5186 32.5415C64.0946 33.5015 64.3826 34.6295 64.3826 35.9255L54.5666 37.8455C54.8706 38.5815 55.3586 39.1415 56.0306 39.5255C56.7026 39.9095 57.5106 40.1015 58.4546 40.1015ZM57.9026 31.9175C56.7986 31.9175 55.9026 32.2775 55.2146 32.9975C54.5426 33.7175 54.2066 34.6855 54.2066 35.9015V35.9255L61.4546 34.5335C61.2466 33.7495 60.8226 33.1175 60.1826 32.6375C59.5586 32.1575 58.7986 31.9175 57.9026 31.9175ZM71.2249 42.6455C70.1849 42.6455 69.1689 42.5095 68.1769 42.2375C67.1849 41.9655 66.3929 41.6215 65.8009 41.2055L66.9529 38.9255C67.5289 39.3095 68.2169 39.6215 69.0169 39.8615C69.8329 40.0855 70.6329 40.1975 71.4169 40.1975C73.2089 40.1975 74.1049 39.7255 74.1049 38.7815C74.1049 38.3335 73.8729 38.0215 73.4089 37.8455C72.9609 37.6695 72.2329 37.5015 71.2249 37.3415C70.1689 37.1815 69.3049 36.9975 68.6329 36.7895C67.9769 36.5815 67.4009 36.2215 66.9049 35.7095C66.4249 35.1815 66.1849 34.4535 66.1849 33.5255C66.1849 32.3095 66.6889 31.3415 67.6969 30.6215C68.7209 29.8855 70.0969 29.5175 71.8249 29.5175C72.7049 29.5175 73.5849 29.6215 74.4649 29.8295C75.3449 30.0215 76.0649 30.2855 76.6249 30.6215L75.4729 32.9015C74.3849 32.2615 73.1609 31.9415 71.8009 31.9415C70.9209 31.9415 70.2489 32.0775 69.7849 32.3495C69.3369 32.6055 69.1129 32.9495 69.1129 33.3815C69.1129 33.8615 69.3529 34.2055 69.8329 34.4135C70.3289 34.6055 71.0889 34.7895 72.1129 34.9655C73.1369 35.1255 73.9769 35.3095 74.6329 35.5175C75.2889 35.7255 75.8489 36.0775 76.3129 36.5735C76.7929 37.0695 77.0329 37.7735 77.0329 38.6855C77.0329 39.8855 76.5129 40.8455 75.4729 41.5655C74.4329 42.2855 73.0169 42.6455 71.2249 42.6455ZM80.5764 42.6455C80.0324 42.6455 79.5684 42.4615 79.1844 42.0935C78.8004 41.7095 78.6084 41.2295 78.6084 40.6535C78.6084 40.0615 78.7924 39.5815 79.1604 39.2135C79.5444 38.8455 80.0164 38.6615 80.5764 38.6615C81.1364 38.6615 81.6004 38.8455 81.9684 39.2135C82.3524 39.5815 82.5444 40.0615 82.5444 40.6535C82.5444 41.2295 82.3524 41.7095 81.9684 42.0935C81.5844 42.4615 81.1204 42.6455 80.5764 42.6455ZM104.061 29.8535C102.477 28.9575 100.829 28.4135 99.1166 28.2215V42.4775H95.9966V28.2215C94.2686 28.4135 92.6126 28.9575 91.0286 29.8535L89.9486 27.4535C91.0686 26.7815 92.2686 26.2775 93.5486 25.9415C94.8446 25.6055 96.1726 25.4375 97.5326 25.4375C98.8926 25.4375 100.221 25.6055 101.517 25.9415C102.813 26.2775 104.021 26.7815 105.141 27.4535L104.061 29.8535ZM109.543 31.5335C110.407 30.1895 111.927 29.5175 114.103 29.5175V32.3735C113.847 32.3255 113.615 32.3015 113.407 32.3015C112.239 32.3015 111.327 32.6455 110.671 33.3335C110.015 34.0055 109.687 34.9815 109.687 36.2615V42.4775H106.687V29.6615H109.543V31.5335ZM129.059 29.6615V42.4775H126.203V40.8215C125.707 41.4295 125.091 41.8855 124.355 42.1895C123.635 42.4935 122.835 42.6455 121.955 42.6455C120.707 42.6455 119.587 42.3735 118.595 41.8295C117.619 41.2855 116.851 40.5175 116.291 39.5255C115.747 38.5335 115.475 37.3815 115.475 36.0695C115.475 34.7575 115.747 33.6135 116.291 32.6375C116.851 31.6455 117.619 30.8775 118.595 30.3335C119.587 29.7895 120.707 29.5175 121.955 29.5175C122.787 29.5175 123.547 29.6615 124.235 29.9495C124.939 30.2375 125.547 30.6615 126.059 31.2215V29.6615H129.059ZM122.291 40.0775C123.395 40.0775 124.307 39.7095 125.027 38.9735C125.747 38.2375 126.107 37.2695 126.107 36.0695C126.107 34.8695 125.747 33.9015 125.027 33.1655C124.307 32.4295 123.395 32.0615 122.291 32.0615C121.187 32.0615 120.275 32.4295 119.555 33.1655C118.851 33.9015 118.499 34.8695 118.499 36.0695C118.499 37.2695 118.851 38.2375 119.555 38.9735C120.275 39.7095 121.187 40.0775 122.291 40.0775ZM144.984 29.6615L139.488 42.4775H136.392L130.896 29.6615H134.016L138 39.1655L142.104 29.6615H144.984ZM152.603 40.1015C153.995 40.1015 155.155 39.6375 156.083 38.7095L157.667 40.5575C157.107 41.2455 156.387 41.7655 155.507 42.1175C154.627 42.4695 153.635 42.6455 152.531 42.6455C151.123 42.6455 149.883 42.3655 148.811 41.8055C147.739 41.2455 146.907 40.4695 146.315 39.4775C145.739 38.4695 145.451 37.3335 145.451 36.0695C145.451 34.8215 145.731 33.7015 146.291 32.7095C146.867 31.7015 147.651 30.9175 148.643 30.3575C149.651 29.7975 150.787 29.5175 152.051 29.5175C153.251 29.5175 154.339 29.7815 155.315 30.3095C156.307 30.8215 157.091 31.5655 157.667 32.5415C158.243 33.5015 158.531 34.6295 158.531 35.9255L148.715 37.8455C149.019 38.5815 149.507 39.1415 150.179 39.5255C150.851 39.9095 151.659 40.1015 152.603 40.1015ZM152.051 31.9175C150.947 31.9175 150.051 32.2775 149.363 32.9975C148.691 33.7175 148.355 34.6855 148.355 35.9015V35.9255L155.603 34.5335C155.395 33.7495 154.971 33.1175 154.331 32.6375C153.707 32.1575 152.947 31.9175 152.051 31.9175ZM165.637 42.6455C164.309 42.6455 163.269 42.2855 162.517 41.5655C161.781 40.8295 161.413 39.7975 161.413 38.4695V24.6695H164.413V38.2535C164.413 39.5335 165.013 40.1735 166.213 40.1735C166.613 40.1735 166.973 40.0935 167.293 39.9335L167.437 42.3335C166.877 42.5415 166.277 42.6455 165.637 42.6455ZM173.436 42.6455C172.396 42.6455 171.38 42.5095 170.388 42.2375C169.396 41.9655 168.604 41.6215 168.012 41.2055L169.164 38.9255C169.74 39.3095 170.428 39.6215 171.228 39.8615C172.044 40.0855 172.844 40.1975 173.628 40.1975C175.42 40.1975 176.316 39.7255 176.316 38.7815C176.316 38.3335 176.084 38.0215 175.62 37.8455C175.172 37.6695 174.444 37.5015 173.436 37.3415C172.38 37.1815 171.516 36.9975 170.844 36.7895C170.188 36.5815 169.612 36.2215 169.116 35.7095C168.636 35.1815 168.396 34.4535 168.396 33.5255C168.396 32.3095 168.9 31.3415 169.908 30.6215C170.932 29.8855 172.308 29.5175 174.036 29.5175C174.916 29.5175 175.796 29.6215 176.676 29.8295C177.556 30.0215 178.276 30.2855 178.836 30.6215L177.684 32.9015C176.596 32.2615 175.372 31.9415 174.012 31.9415C173.132 31.9415 172.46 32.0775 171.996 32.3495C171.548 32.6055 171.324 32.9495 171.324 33.3815C171.324 33.8615 171.564 34.2055 172.044 34.4135C172.54 34.6055 173.3 34.7895 174.324 34.9655C175.348 35.1255 176.188 35.3095 176.844 35.5175C177.5 35.7255 178.06 36.0775 178.524 36.5735C179.004 37.0695 179.244 37.7735 179.244 38.6855C179.244 39.8855 178.724 40.8455 177.684 41.5655C176.644 42.2855 175.228 42.6455 173.436 42.6455Z" fill="#051721"/>
</svg>
